<?xml version="1.0" encoding="utf-8"?>
<!-- Generator: Adobe Illustrator 19.0.1, SVG Export Plug-In . SVG Version: 6.00 Build 0)  -->
<svg version="1.1" id="Шар_1" xmlns="http://www.w3.org/2000/svg" xmlns:xlink="http://www.w3.org/1999/xlink" x="0px" y="0px"
	 viewBox="-106 389.6 496 496" style="enable-background:new -106 389.6 496 496;" xml:space="preserve">
<style type="text/css">
	.st0{fill:#FFFFFF;}
</style>
<g>
	<path class="st0" d="M142,693.6c-22.1,0-40,17.9-40,40s17.9,40,40,40s40-17.9,40-40S164.1,693.6,142,693.6z M142,757.6
		c-13.2,0-24-10.8-24-24s10.8-24,24-24s24,10.8,24,24S155.2,757.6,142,757.6z"/>
	<path class="st0" d="M134,421.6h64v16h-64V421.6z"/>
	<path class="st0" d="M134,453.6h64v16h-64V453.6z"/>
	<path class="st0" d="M86,485.6h112v16H86V485.6z"/>
	<path class="st0" d="M86,517.6h112v16H86V517.6z"/>
	<path class="st0" d="M86,549.6h112v16H86V549.6z"/>
	<path class="st0" d="M390,645.6v-64H278v64h48v80h-96v-13.8l-19.6-6.6l9.3-18.5L188.8,656l-18.5,9.3l-6.5-19.6H150v-48h80v-96h96
		v44.7l-18.3-18.3l-11.3,11.3l37.7,37.7l37.7-37.7l-11.3-11.3L342,546.3v-60.7H230v-96H106.7L54,442.3v43.3H-58v60.7l-18.3-18.3
		l-11.3,11.3l37.7,37.7l37.7-37.7l-11.3-11.3L-42,546.3v-44.7h96v96h80v48h-13.8l-6.5,19.6L95.2,656l-30.8,30.8l9.3,18.5L54,711.8
		v13.8h-96v-80H6v-64h-112v64h48v129.1c-13.8,3.6-24,16-24,30.9c0,17.6,14.4,32,32,32s32-14.4,32-32c0-14.9-10.2-27.3-24-30.9v-33.1
		H6v97.5c-9.3,3.3-16,12.1-16,22.5c0,13.2,10.8,24,24,24s24-10.8,24-24c0-10.4-6.7-19.2-16-22.5v-97.5h32v13.8l19.6,6.6l-9.3,18.5
		l30.8,30.8l18.5-9.3l6.5,19.6h43.5l6.5-19.6l18.5,9.3l30.8-30.8l-9.3-18.5l19.6-6.6v-13.8h32v97.5c-9.3,3.3-16,12.1-16,22.5
		c0,13.2,10.8,24,24,24s24-10.8,24-24c0-10.4-6.7-19.2-16-22.5v-97.5h48v33.1c-13.8,3.6-24,16-24,30.9c0,17.6,14.4,32,32,32
		s32-14.4,32-32c0-14.9-10.2-27.3-24-30.9V645.6H390z M102,416.9v20.7H81.3L102,416.9z M70,453.6h48v-48h96v176H70V453.6z
		 M-90,597.6h80v32h-80V597.6z M-34,805.6c0,8.8-7.2,16-16,16s-16-7.2-16-16s7.2-16,16-16S-34,796.8-34,805.6z M14,869.6
		c-4.4,0-8-3.6-8-8s3.6-8,8-8s8,3.6,8,8S18.4,869.6,14,869.6z M214,743.8l-18.4,6.1l-1.4,3.5c-0.4,1-0.8,2-1.2,3l-1.6,3.5l8.6,17.3
		l-14.5,14.5l-17.3-8.6l-3.5,1.6c-1,0.4-2,0.8-3,1.2l-3.6,1.3l-6.1,18.4h-20.5l-6.1-18.4l-3.6-1.3c-1-0.4-2-0.8-3-1.2l-3.5-1.6
		l-17.3,8.6l-14.5-14.5l8.6-17.3l-1.6-3.5c-0.4-1-0.8-2-1.2-3l-1.4-3.5L70,743.8v-20.5l18.4-6.1l1.4-3.5c0.4-1,0.8-2,1.2-3l1.6-3.5
		l-8.6-17.3l14.5-14.5l17.3,8.6l3.5-1.6c1-0.4,2-0.8,3-1.2l3.6-1.3l6.1-18.4h20.5l6.1,18.4l3.6,1.3c1,0.4,2,0.8,3,1.2l3.5,1.6
		l17.3-8.6l14.5,14.5l-8.6,17.3l1.6,3.5c0.4,1,0.8,2,1.2,3l1.4,3.5l18.3,6.1V743.8z M270,869.6c-4.4,0-8-3.6-8-8s3.6-8,8-8
		s8,3.6,8,8S274.4,869.6,270,869.6z M350,805.6c0,8.8-7.2,16-16,16s-16-7.2-16-16s7.2-16,16-16S350,796.8,350,805.6z M294,597.6h80
		v32h-80V597.6z"/>
</g>
</svg>
